<?xml version="1.0" encoding="UTF-8"?>
<svg version="1.1" xmlns="http://www.w3.org/2000/svg" width="1198" height="347">
<path d="M0 0 C395.34 0 790.68 0 1198 0 C1198 114.51 1198 229.02 1198 347 C802.66 347 407.32 347 0 347 C0 232.49 0 117.98 0 0 Z " fill="#359346" transform="translate(0,0)"/>
<path d="M0 0 C99 0 198 0 300 0 C298.35 1.32 296.7 2.64 295 4 C293.11330861 5.71640262 291.23905642 7.44654164 289.375 9.1875 C284.63969488 13.57698058 279.75079473 17.70122838 274.71875 21.75 C271.01658227 24.81386295 267.50382778 28.0644172 263.99609375 31.34765625 C259.80209769 35.06046372 255.37387911 38.50089671 251 42 C282.35 42.33 313.7 42.66 346 43 C346 46 346 46 343.76171875 48.3828125 C342.74521797 49.30602842 341.71981781 50.21950488 340.6875 51.125 C340.14279053 51.61363525 339.59808105 52.10227051 339.03686523 52.60571289 C334.7540683 56.41698648 330.31910798 60.02512644 325.8515625 63.6171875 C322.60758511 66.32790833 319.52244854 69.17402204 316.4375 72.0625 C312.50292729 75.72492077 308.5522649 79.35125658 304.4375 82.8125 C303.29087891 83.78123047 303.29087891 83.78123047 302.12109375 84.76953125 C300 86 300 86 298.0703125 86.01171875 C295.04791581 84.53473622 292.82618861 82.31733817 290.4375 80 C286.5671025 76.34304354 282.65939699 72.83234708 278.5 69.5 C273.99157138 65.87252869 269.73890204 62.04947176 265.50683594 58.11010742 C260.52681634 53.50269244 255.30517125 49.22951645 250 45 C245.70554982 46.40839495 243.12953521 48.45854776 239.875 51.5625 C236.17433649 55.02009043 232.45053086 58.32485986 228.5 61.5 C223.74116077 65.33951802 219.23937025 69.39859679 214.7421875 73.5390625 C212.09984117 75.91039895 209.39305833 78.15252997 206.625 80.375 C201.8293951 84.24154184 197.33121333 88.34851983 192.83862305 92.5559082 C188.62588877 96.47892724 184.23595547 100.11903719 179.74609375 103.72265625 C176.21081914 106.65447005 172.85958594 109.76844219 169.5 112.89672852 C165.24178395 116.83738504 160.81144091 120.50304867 156.27734375 124.125 C153.80175808 126.10179803 153.80175808 126.10179803 151 129 C183.01 129.33 215.02 129.66 248 130 C239.62832544 138.37167456 230.99618891 146.29639942 221.76171875 153.7109375 C218.13263238 156.71892139 214.68099977 159.89718957 211.2253418 163.10107422 C207.55982348 166.49909401 203.82506019 169.78347212 200 173 C195.96816332 171.32252051 192.93084152 168.53177266 189.6875 165.6875 C189.07648438 165.15769531 188.46546875 164.62789062 187.8359375 164.08203125 C186.54190469 162.95930624 185.24945832 161.83475046 183.95849609 160.70849609 C181.43387883 158.50614361 178.90155858 156.31275773 176.36914062 154.11938477 C175.11855993 153.03590752 173.86856373 151.95175529 172.61914062 150.86694336 C168.32607377 147.14060145 164.01109289 143.44084319 159.6875 139.75 C155.67652499 136.32559051 151.71344895 132.86273272 147.8125 129.3125 C144.47772886 126.28287132 141.06712361 123.39391908 137.5625 120.5625 C132.79003797 116.70291397 128.26890891 112.62800009 123.75390625 108.47265625 C121.04396955 106.03947904 118.26904746 103.72742938 115.4375 101.4375 C104.32978823 92.44249422 104.32978823 92.44249422 100 88 C100 87.34 100 86.68 100 86 C99.18208984 85.9071875 99.18208984 85.9071875 98.34765625 85.8125 C95.02284359 84.66181609 92.91356384 82.40209148 90.4375 80 C86.54615279 76.32354541 82.6151103 72.79279333 78.4375 69.4375 C74.67161811 66.40642433 71.05670244 63.27418423 67.5 60 C63.0301488 55.88621091 58.40955107 52.02912703 53.68359375 48.21484375 C50.19449084 45.33519113 46.87003079 42.29306124 43.52734375 39.24609375 C40.93037607 36.93812402 38.26595987 34.74444137 35.5625 32.5625 C31.75912497 29.48663412 28.09917348 26.31246834 24.5 23 C19.99751012 18.85719547 15.3462704 14.96055532 10.59375 11.109375 C8.14479626 9.11775599 5.71509639 7.10978284 3.3125 5.0625 C2.66925781 4.51722656 2.02601562 3.97195312 1.36328125 3.41015625 C0 2 0 2 0 0 Z M129.48730469 59.90698242 C125.36120404 63.72435899 121.05235598 67.27292 116.67578125 70.80078125 C110.85140734 75.58782141 105.32939383 80.67060617 100 86 C132.01 86 164.02 86 197 86 C193.49170402 81.79004482 191.00970176 78.98370704 186.875 75.75 C182.95566191 72.61873258 179.18710446 69.40185569 175.5 66 C171.0196001 61.87701092 166.39458161 58.00051691 161.65234375 54.18359375 C158.25106005 51.38342058 155.00664845 48.42931402 151.77734375 45.43359375 C146.18858281 40.92573602 134.08377359 55.63173222 129.48730469 59.90698242 Z " fill="#329043" transform="translate(0,0)"/>
<path d="M0 0 C5.10019602 3.82514701 9.75351396 7.46080603 14.3125 11.8125 C19.15376491 16.36095215 24.13831202 20.62844183 29.3203125 24.7890625 C32.13253315 27.1093495 34.81797263 29.53071134 37.5 32 C41.07792463 35.29331699 44.71539666 38.44651321 48.5 41.5 C53.25595419 45.33719031 57.75504801 49.39385101 62.25 53.53125 C64.93737634 55.94378104 67.68965444 58.2325621 70.5 60.5 C75.24459119 64.32802243 79.73686016 68.36896862 84.2109375 72.5078125 C87.95786634 75.85590858 91.89808003 78.93308694 95.8828125 81.9921875 C98.06686874 84.06341427 98.67031126 85.05917645 99 88 C98.33355469 88.53367187 97.66710937 89.06734375 96.98046875 89.6171875 C91.04397289 94.41620094 85.35451549 99.37158475 79.73828125 104.54296875 C77.11839954 106.89376133 74.43447781 109.11250459 71.6875 111.3125 C67.25262761 114.88574004 63.08036815 118.66106683 58.9375 122.5625 C54.33510057 126.89231574 49.65921329 130.97609112 44.671875 134.86328125 C39.29643007 139.16206543 34.16126651 143.75041952 28.97753906 148.27685547 C27.00776204 149.99323649 25.0323594 151.70288068 23.0546875 153.41015625 C21.76561773 154.52342909 20.47655513 155.63671021 19.1875 156.75 C18.56568848 157.2867334 17.94387695 157.8234668 17.30322266 158.37646484 C12.73896246 162.32843142 8.27020628 166.36933853 3.85546875 170.48828125 C2 172 2 172 0 172 C0 115.24 0 58.48 0 0 Z " fill="#3D9B4E" transform="translate(899,87)"/>
<path d="M0 0 C0 56.43 0 112.86 0 171 C-8.90510949 164.32116788 -8.90510949 164.32116788 -12.8125 160.6875 C-16.26980431 157.52623398 -19.79053355 154.50293164 -23.4375 151.5625 C-28.211403 147.70174863 -32.73388428 143.62562925 -37.25 139.46875 C-39.93737634 137.05621896 -42.68965444 134.7674379 -45.5 132.5 C-50.25595419 128.66280969 -54.75504801 124.60614899 -59.25 120.46875 C-61.93737634 118.05621896 -64.68965444 115.7674379 -67.5 113.5 C-72.24662327 109.67033804 -76.73792223 105.62303289 -81.22265625 101.4921875 C-84.90202754 98.19058569 -88.72703588 95.09123204 -92.58984375 92.0078125 C-94.86458234 90.11281147 -96.94382399 88.12773666 -99 86 C-97.75037201 82.25111602 -96.22103014 81.35380681 -93.125 78.9375 C-89.11670413 75.74225639 -85.26849608 72.48070027 -81.5 69 C-77.05272888 64.90648909 -72.45282537 61.07557501 -67.75 57.28125 C-64.91900422 54.93281032 -62.20616402 52.49090098 -59.5 50 C-55.05272888 45.90648909 -50.45282537 42.07557501 -45.75 38.28125 C-42.91900422 35.93281032 -40.20616402 33.49090098 -37.5 31 C-33.05540197 26.90894954 -28.45910165 23.07956059 -23.7578125 19.2890625 C-20.87935983 16.89986524 -18.12505251 14.41056373 -15.375 11.875 C-2.4609375 0 -2.4609375 0 0 0 Z " fill="#3D9B4E" transform="translate(699,88)"/>
<path d="M0 0 C4.15209531 1.70788157 7.28758025 4.64423379 10.625 7.5625 C11.24673096 8.10044189 11.86846191 8.63838379 12.5090332 9.19262695 C16.10721395 12.31569008 19.66095451 15.48360795 23.1875 18.6875 C27.41601333 22.52845728 31.80002284 26.13519564 36.25390625 29.7109375 C39.93897735 32.78270373 43.38063587 36.09077052 46.80859375 39.4453125 C48.81927896 41.19126577 48.81927896 41.19126577 50.96484375 40.9921875 C53.69585402 39.66075447 55.79717198 37.95456113 58.125 36 C59.09695313 35.1853125 60.06890625 34.370625 61.0703125 33.53125 C64.58782007 30.49212346 68.03320799 27.38112689 71.46875 24.25 C74.97040818 21.13741495 78.61570714 18.21520003 82.2578125 15.26953125 C85.84343143 12.30194635 89.28286231 9.19014815 92.7109375 6.04296875 C95.07317846 3.93468885 97.5113576 1.95661814 100 0 C102.7153387 1.26264904 104.9004586 2.60350426 107.14453125 4.58203125 C107.73105469 5.09507812 108.31757813 5.608125 108.921875 6.13671875 C109.54578125 6.68972656 110.1696875 7.24273437 110.8125 7.8125 C112.16266316 8.99620469 113.51292635 10.1797953 114.86328125 11.36328125 C115.55115723 11.96865723 116.2390332 12.5740332 116.94775391 13.19775391 C120.11769053 15.98153598 123.30942905 18.73992633 126.5 21.5 C127.73179536 22.56898216 128.96356603 23.63799276 130.1953125 24.70703125 C132.87000312 27.02588875 135.55374194 29.33382546 138.2421875 31.63671875 C139.27956055 32.52810547 139.27956055 32.52810547 140.33789062 33.4375 C141.67025232 34.58207917 143.00480386 35.7241154 144.34179688 36.86328125 C148.8875378 40.7750756 148.8875378 40.7750756 150 43 C101.985 43.495 101.985 43.495 53 44 C59.36228341 49.78389401 65.53177754 55.28736539 72.18359375 60.65234375 C75.73827813 63.61540243 79.11614555 66.7431263 82.49951172 69.8984375 C86.74256482 73.83001036 91.17263675 77.45280567 95.72265625 81.02734375 C98 83 98 83 101 87 C68 87 35 87 1 87 C2.24962799 83.25111602 3.77896986 82.35380681 6.875 79.9375 C10.88329587 76.74225639 14.73150392 73.48070027 18.5 70 C22.93709661 65.91585426 27.52484978 62.09203919 32.21875 58.30859375 C36.16954126 55.02921505 39.92608703 51.55992789 43.6875 48.06640625 C46 46 46 46 49 44 C16.99 43.67 -15.02 43.34 -48 43 C-43.79378516 38.09274936 -39.86961898 33.91654448 -35 29.8125 C-34.34918457 29.25643066 -33.69836914 28.70036133 -33.02783203 28.12744141 C-31.68089158 26.97715361 -30.33209177 25.82903948 -28.98144531 24.68310547 C-27.10411796 23.08844125 -25.2340918 21.4857519 -23.3671875 19.87890625 C-15.61554937 13.20836669 -7.81568978 6.59529968 0 0 Z " fill="#308E41" transform="translate(198,260)"/>
<path d="M0 0 C0 3.10551666 -0.5393715 4.35261084 -2 7 C4.32177509 12.85711851 10.69871932 18.48377451 17.4921875 23.796875 C20.37108048 26.32599593 22.61355734 29.00625473 25 32 C18.26901317 38.28460376 11.47541497 44.37499891 4.27734375 50.125 C2.02840874 51.90294474 2.02840874 51.90294474 0.31640625 53.75 C-1 55 -1 55 -3 55 C-3 55.99 -3 56.98 -3 58 C-2.43410156 58.24621094 -1.86820313 58.49242187 -1.28515625 58.74609375 C1.39248258 60.21536224 3.33043612 61.97752435 5.5625 64.0625 C11.72734019 69.71512795 18.03032259 75.35354839 25 80 C25.33 64.49 25.66 48.98 26 33 C30.09898797 35.04949398 33.16184657 37.56677553 36.5625 40.5625 C42.6039575 45.84964835 48.77831229 50.90952824 55 56 C55 39.83 55 23.66 55 7 C59.47870741 8.11967685 60.77851415 9.36594576 64.0625 12.5 C68.78161608 16.91506565 73.6407019 21.04800399 78.6875 25.08984375 C83.88692941 29.3846427 83.88692941 29.3846427 84.36914349 32.0089674 C84.36637811 32.78050813 84.36361273 33.55204885 84.36076355 34.3469696 C84.36488754 35.23457977 84.36901154 36.12218994 84.3732605 37.03669739 C84.36247467 38.00773911 84.35168884 38.97878082 84.34057617 39.97924805 C84.34123329 41.51609253 84.34123329 41.51609253 84.34190369 43.08398438 C84.33981059 46.47675511 84.31645451 49.86903414 84.29296875 53.26171875 C84.28737466 55.61155426 84.28310368 57.96139326 84.28010559 60.31123352 C84.26864214 66.50092196 84.23916186 72.69039976 84.20599365 78.88000488 C84.1753252 85.19406281 84.16160714 91.50815471 84.14648438 97.82226562 C84.11429376 110.21493638 84.06307915 122.60745069 84 135 C82.72832614 134.05742609 81.4582012 133.11276224 80.1887207 132.16723633 C79.12751762 131.37848869 79.12751762 131.37848869 78.0448761 130.57380676 C75.25632336 128.42764096 72.74726884 126.10406499 70.1875 123.6875 C66.39557819 120.14580653 62.54717852 116.75292703 58.5 113.5 C53.98222187 109.86500611 49.72181484 106.0328971 45.48046875 102.0859375 C42.24788253 99.09558642 38.93294134 96.26213671 35.5 93.5 C31.52370574 90.30068278 27.73331702 86.97415055 24 83.5 C19.38998361 79.2104224 14.62216764 75.19589103 9.71484375 71.24609375 C5.93432714 68.11832821 2.35519125 64.78726117 -1.25390625 61.46484375 C-3.91875166 59.07292703 -6.64831825 56.80745116 -9.4375 54.5625 C-14.54886637 50.43689715 -19.37017123 46.06085284 -24.18359375 41.59765625 C-27.72887685 38.32773494 -31.34670802 35.14827809 -35 32 C-33.48601922 28.18511059 -31.27002932 26.36923371 -28.0625 23.875 C-24.07609331 20.70458529 -20.2415477 17.45622104 -16.5 14 C-11.17642106 9.09892732 -5.64792023 4.52270595 0 0 Z " fill="#2F8D40" transform="translate(1114,142)"/>
<path d="M0 0 C2.7153387 1.26264904 4.9004586 2.60350426 7.14453125 4.58203125 C7.73113525 5.09515869 8.31773926 5.60828613 8.92211914 6.13696289 C9.54594482 6.68989014 10.16977051 7.24281738 10.8125 7.8125 C12.16137235 8.99488976 13.51033316 10.17717862 14.859375 11.359375 C15.54708984 11.96458984 16.23480469 12.56980469 16.94335938 13.19335938 C20.13651214 15.99836062 23.34952466 18.78025573 26.5625 21.5625 C27.17351562 22.09319092 27.78453125 22.62388184 28.4140625 23.1706543 C31.58867014 25.92541338 34.7759085 28.66362778 37.984375 31.37890625 C38.62689209 31.92409912 39.26940918 32.46929199 39.93139648 33.03100586 C41.15472536 34.0676203 42.38066738 35.10116147 43.60961914 36.13110352 C46.17489953 38.30700762 48.1201691 40.18025365 50 43 C1.985 43.495 1.985 43.495 -47 44 C-40.63771659 49.78389401 -34.46822246 55.28736539 -27.81640625 60.65234375 C-24.26172187 63.61540243 -20.88385445 66.7431263 -17.50048828 69.8984375 C-13.25743518 73.83001036 -8.82736325 77.45280567 -4.27734375 81.02734375 C-2 83 -2 83 1 87 C-31.67 87 -64.34 87 -98 87 C-95.98980107 82.97960214 -94.36447777 81.25443428 -91.0625 78.3125 C-90.57450928 77.87607178 -90.08651855 77.43964355 -89.58374023 76.98999023 C-85.43481924 73.30982873 -81.13276743 69.82898881 -76.81640625 66.34765625 C-73.78558057 63.82126758 -70.88768895 61.18690324 -68 58.5 C-63.3675162 54.19003562 -58.57877767 50.14938832 -53.6484375 46.1796875 C-51.02724881 44.02242601 -48.50845719 41.78689 -46 39.5 C-42.60401318 36.40444804 -39.13828469 33.44848793 -35.5625 30.5625 C-31.75912497 27.48663412 -28.09917348 24.31246834 -24.5 21 C-19.99858542 16.85818487 -15.35195362 12.9593002 -10.59375 9.1171875 C-6.98165769 6.16876275 -3.48066574 3.10168208 0 0 Z " fill="#318F42" transform="translate(98,260)"/>
<path d="M0 0 C2.96802082 1.54952335 5.21636602 3.75233922 7.59765625 6.0625 C11.46805375 9.71945646 15.37575926 13.23015292 19.53515625 16.5625 C24.04443049 20.19065169 28.30447229 24.00862292 32.52832031 27.95898438 C36.84273857 31.96543172 41.3804973 35.59903324 46.05078125 39.1875 C47.03304687 40.115625 47.03304687 40.115625 48.03515625 41.0625 C48.03515625 44.0625 48.03515625 44.0625 46.234375 46.0078125 C45.40550781 46.72710937 44.57664062 47.44640625 43.72265625 48.1875 C42.80742188 48.98542969 41.8921875 49.78335938 40.94921875 50.60546875 C37.27807042 53.70084717 33.55395872 56.72661896 29.8203125 59.74609375 C26.03325505 62.89577828 22.43472667 66.23391433 18.8125 69.5703125 C15.13312871 72.87191431 11.30812037 75.97126796 7.4453125 79.0546875 C4.98499174 81.00352093 4.98499174 81.00352093 2.96875 83.3828125 C2.33066406 83.93710937 1.69257812 84.49140625 1.03515625 85.0625 C-3.41184462 84.4853826 -6.11302882 81.62908428 -9.33984375 78.75 C-10.59878562 77.64824012 -11.85790508 76.54668312 -13.1171875 75.4453125 C-14.07794189 74.59888184 -14.07794189 74.59888184 -15.05810547 73.73535156 C-17.98196924 71.17013843 -20.94334105 68.64948742 -23.90234375 66.125 C-26.25807774 64.10599051 -28.61150204 62.08429703 -30.96484375 60.0625 C-31.62258789 59.49789062 -32.28033203 58.93328125 -32.95800781 58.3515625 C-34.98308315 56.61164097 -37.00554026 54.86872171 -39.02734375 53.125 C-39.64665771 52.59334229 -40.26597168 52.06168457 -40.90405273 51.51391602 C-44.40440709 48.48890068 -47.73623056 45.37655853 -50.96484375 42.0625 C-49.70994141 40.98935547 -49.70994141 40.98935547 -48.4296875 39.89453125 C-42.11344043 34.48913127 -35.80811481 29.07159967 -29.52734375 23.625 C-28.91318604 23.09245605 -28.29902832 22.55991211 -27.66625977 22.01123047 C-24.39534072 19.17379647 -21.12667479 16.33378803 -17.859375 13.4921875 C-17.18640381 12.90751709 -16.51343262 12.32284668 -15.82006836 11.72045898 C-14.53760122 10.60622573 -13.25581821 9.49120435 -11.97485352 8.37524414 C-10.82957552 7.38053991 -9.68030968 6.3904012 -8.52636719 5.40576172 C-7.09124972 4.1712376 -5.68654152 2.90159288 -4.28515625 1.62890625 C-1.96484375 0.0625 -1.96484375 0.0625 0 0 Z " fill="#3D9B4E" transform="translate(799.96484375,173.9375)"/>
<path d="M0 0 C4.03182477 1.67747454 7.06919308 4.4682019 10.3125 7.3125 C10.92424072 7.84302979 11.53598145 8.37355957 12.16625977 8.92016602 C13.46099754 10.04365525 14.75417791 11.16894146 16.04589844 12.29589844 C17.93565851 13.94389011 19.8300968 15.58629481 21.7265625 17.2265625 C26.12069869 21.02771036 30.50802057 24.83668967 34.89550781 28.64550781 C41.58140706 34.44868905 48.27349322 40.24389938 55 46 C61.71782217 51.7486689 68.40103651 57.53662738 75.078125 63.33251953 C77.71269059 65.61835324 80.34950923 67.90158079 82.98632812 70.18481445 C84.87716649 71.82273663 86.76683748 73.46199593 88.65625 75.1015625 C90.67291009 76.85137849 92.69358624 78.59592611 94.71875 80.3359375 C95.4509375 80.96757812 96.183125 81.59921875 96.9375 82.25 C97.54464844 82.77078125 98.15179687 83.2915625 98.77734375 83.828125 C99.18082031 84.21484375 99.58429688 84.6015625 100 85 C100 85.33 100 85.66 100 86 C67.66 86 35.32 86 2 86 C10.37020446 77.62979554 19.00016682 69.70463584 28.234375 62.29296875 C32.35855396 58.87362829 36.25976909 55.23235736 40.17578125 51.578125 C43.0393018 48.96412284 46.02144479 46.48212934 49 44 C16.99 43.67 -15.02 43.34 -48 43 C-41.30123617 35.18477554 -41.30123617 35.18477554 -36.8125 31.6875 C-32.9118136 28.57856321 -29.16600405 25.38279344 -25.5 22 C-21.02121394 17.87849602 -16.39521217 14.00570363 -11.66015625 10.18359375 C-7.6679675 6.90659887 -3.82669157 3.46764396 0 0 Z " fill="#3D9B4E" transform="translate(548,217)"/>
<path d="M0 0 C2.60005398 1.31804717 4.41946379 2.99235773 6.53515625 5 C10.06950721 8.28041665 13.65143176 11.41651942 17.41015625 14.4375 C22.17329511 18.28954619 26.68662885 22.35510982 31.19140625 26.50390625 C34.90573354 29.83741066 38.76537575 32.97062274 42.66015625 36.08984375 C44.54941381 37.65039602 46.28452736 39.22857528 47.97265625 41 C46.40935815 44.9683721 43.65147985 47.41574869 40.53515625 50.1875 C40.00092041 50.67017334 39.46668457 51.15284668 38.91625977 51.65014648 C34.62304869 55.49737547 30.17807251 59.13954301 25.6875 62.75390625 C22.8659213 65.0883059 20.16674913 67.51990598 17.47265625 70 C13.71351596 73.44093473 9.92363248 76.83038136 6.03515625 80.125 C5.15988281 80.87007813 4.28460937 81.61515625 3.3828125 82.3828125 C0.97265625 84 0.97265625 84 -3.02734375 84 C-5.02605509 82.41112843 -6.78253567 80.84633274 -8.58984375 79.0625 C-9.66043871 78.04183001 -10.7334019 77.02363891 -11.80859375 76.0078125 C-12.34742188 75.49766602 -12.88625 74.98751953 -13.44140625 74.46191406 C-15.73837134 72.34457617 -18.15310069 70.39109573 -20.58984375 68.4375 C-25.31721702 64.63254103 -29.78566383 60.60886117 -34.2421875 56.4921875 C-37.96651215 53.1596221 -41.86821791 50.07495868 -45.8125 47.0078125 C-47.94705786 45.07278121 -48.97581145 43.64962375 -50.02734375 41 C-44.99099904 36.37879867 -39.91025802 31.85562967 -34.58984375 27.5625 C-30.78646872 24.48663412 -27.12651723 21.31246834 -23.52734375 18 C-18.20472643 13.10441215 -12.67121781 8.51861568 -7.02734375 4 C-6.17914062 3.23429687 -5.3309375 2.46859375 -4.45703125 1.6796875 C-2.02734375 0 -2.02734375 0 0 0 Z " fill="#3D9B4E" transform="translate(800.02734375,88)"/>
<path d="M0 0 C4.03183668 1.67747949 7.06915848 4.46822734 10.3125 7.3125 C10.92351563 7.84230469 11.53453125 8.37210938 12.1640625 8.91796875 C13.45809531 10.04069376 14.75054168 11.16524954 16.04150391 12.29150391 C18.56668658 14.49434962 21.09957297 16.68822775 23.63256836 18.88208008 C24.87747329 19.96065048 26.12177711 21.03991508 27.36547852 22.11987305 C30.55166184 24.88567164 33.74532941 27.64209475 36.953125 30.3828125 C37.59056641 30.92744141 38.22800781 31.47207031 38.88476562 32.03320312 C40.09602955 33.06689956 41.30821697 34.0995152 42.52148438 35.13085938 C45.10717323 37.33710986 47.6534926 39.5378197 50 42 C48.42702085 46.25806457 45.20878993 48.63917118 41.8125 51.4375 C40.53601045 52.50988376 39.25998403 53.582819 37.984375 54.65625 C37.32501953 55.20796875 36.66566406 55.7596875 35.98632812 56.328125 C32.81535292 58.99710708 29.68999817 61.71784673 26.5625 64.4375 C25.64210938 65.23353638 25.64210938 65.23353638 24.703125 66.0456543 C21.40269299 68.90130153 18.12088438 71.77572781 14.859375 74.67578125 C14.18189209 75.27398682 13.50440918 75.87219238 12.80639648 76.48852539 C11.50651342 77.63688541 10.21148998 78.79077707 8.92211914 79.95092773 C8.33551514 80.46727783 7.74891113 80.98362793 7.14453125 81.515625 C6.63253174 81.97227539 6.12053223 82.42892578 5.59301758 82.89941406 C3.71255966 84.19858713 2.26451998 84.70769423 0 85 C-2.375 83.515625 -2.375 83.515625 -5 81.25 C-6.4540625 80.00476563 -6.4540625 80.00476563 -7.9375 78.734375 C-11.50879008 75.56953609 -15.02077953 72.34019354 -18.51538086 69.09106445 C-22.61522845 65.29574292 -26.8997071 61.77449168 -31.25390625 58.2734375 C-35.19625223 55.00964609 -38.93817386 51.5487019 -42.6875 48.06640625 C-45.01802691 45.88630363 -45.01802691 45.88630363 -48 44 C-46.5045292 40.40278644 -44.47293692 38.36902779 -41.5625 35.8125 C-40.6653125 35.02359375 -39.768125 34.2346875 -38.84375 33.421875 C-35.20682295 30.32449207 -31.49943265 27.32021628 -27.78515625 24.31640625 C-23.99951815 21.16790219 -20.40232235 17.83101814 -16.78125 14.49609375 C-13.06692271 11.16258934 -9.2072805 8.02937726 -5.3125 4.91015625 C-3.42324244 3.34960398 -1.68812889 1.77142472 0 0 Z " fill="#3D9B4E" transform="translate(798,1)"/>
<path d="M0 0 C5.48390219 3.90200733 10.44840574 8.17652478 15.36425781 12.7590332 C18.64769361 15.80375767 22.00757172 18.69295447 25.5 21.5 C30.59923578 25.60300303 35.39337368 29.95916453 40.17578125 34.421875 C43.05005834 37.04569641 45.99317397 39.53058305 49 42 C47.39225765 46.49952055 43.8602449 48.96803172 40.3125 51.9375 C38.94515133 53.10137318 37.57796842 54.26544112 36.2109375 55.4296875 C35.5106543 56.02233398 34.81037109 56.61498047 34.08886719 57.22558594 C30.84864817 59.97803005 27.64476395 62.77181317 24.4375 65.5625 C21.95988886 67.71013289 19.48019378 69.85535049 17 72 C16.3498291 72.56235352 15.6996582 73.12470703 15.02978516 73.70410156 C13.10493504 75.36727085 11.17785516 77.02781557 9.25 78.6875 C8.66532959 79.19289307 8.08065918 79.69828613 7.47827148 80.21899414 C5.05150326 82.30395391 2.66617684 84.22254878 0 86 C-7.18565204 79.85510496 -14.3599479 73.69785772 -21.5 67.5 C-26.50913304 63.15295618 -31.52797306 58.81761893 -36.5625 54.5 C-37.12195313 54.01982422 -37.68140625 53.53964844 -38.2578125 53.04492188 C-41.81340609 49.99910616 -45.3975705 46.99028734 -49 44 C-47.49066744 40.2097098 -45.31798482 38.41322011 -42.125 35.9375 C-37.92609147 32.59920327 -33.91950555 29.1606763 -30 25.5 C-25.40233009 21.22020283 -20.64775195 17.21405425 -15.75 13.27734375 C-11.77139874 9.98256458 -7.99736433 6.4853545 -4.21484375 2.96875 C-2 1 -2 1 0 0 Z " fill="#3D9B4E" transform="translate(799,260)"/>
<path d="M0 0 C5.23344958 3.92508718 10.236823 7.82009023 15.125 12.125 C16.43850055 13.27248067 17.75230975 14.41960812 19.06640625 15.56640625 C19.7227002 16.1402002 20.37899414 16.71399414 21.05517578 17.30517578 C24.04257439 19.90855529 27.0513428 22.48667545 30.0625 25.0625 C30.63129883 25.54952393 31.20009766 26.03654785 31.78613281 26.53833008 C33.52376203 28.0259354 35.26182687 29.51303026 37 31 C52.27244987 44.06638436 52.27244987 44.06638436 59 50 C57.39224723 54.49954969 53.86022115 56.96797887 50.3125 59.9375 C48.94386276 61.10269117 47.57537734 62.26806068 46.20703125 63.43359375 C45.50658691 64.02640137 44.80614258 64.61920898 44.08447266 65.22998047 C40.8677291 67.96146217 37.68482508 70.73144787 34.5 73.5 C33.25534749 74.57828565 32.01055521 75.65640999 30.765625 76.734375 C28.20990477 78.9489772 25.65834113 81.16825313 23.109375 83.390625 C1.74554377 102 1.74554377 102 0 102 C0 68.34 0 34.68 0 0 Z " fill="#3D9B4E" transform="translate(399,174)"/>
<path d="M0 0 C3.8104635 1.90523175 5.99593882 3.67659044 9.0625 6.5625 C12.79595956 10.03391819 16.59216657 13.3591628 20.5625 16.5625 C25.00993448 20.15198968 29.25406991 23.90828456 33.4765625 27.7578125 C36.05082358 30.04515904 38.69289489 32.21548271 41.375 34.375 C47.49578831 39.32241831 53.25037795 44.63167924 59 50 C57.48601922 53.81488941 55.27002932 55.63076629 52.0625 58.125 C48.07609331 61.29541471 44.2415477 64.54377896 40.5 68 C36.05272888 72.09351091 31.45282537 75.92442499 26.75 79.71875 C23.91900422 82.06718968 21.20616402 84.50909902 18.5 87 C4.79073756 99.60463122 4.79073756 99.60463122 0 102 C0 68.34 0 34.68 0 0 Z " fill="#3D9B4E" transform="translate(399,71)"/>
<path d="M0 0 C0 33.66 0 67.32 0 102 C-4.02163999 99.58701601 -6.77468232 97.52529872 -10.125 94.375 C-13.8261671 90.9516685 -17.57310976 87.66176549 -21.5 84.5 C-25.28460334 81.44651321 -28.92207537 78.29331699 -32.5 75 C-36.9561831 70.89879023 -41.56151769 67.0521255 -46.2734375 63.25 C-50.64428264 59.64311347 -54.82526949 55.83060956 -59 52 C-57.42423045 47.71713918 -54.16176242 45.31496878 -50.75 42.5 C-49.47252195 41.42594097 -48.19518195 40.35171771 -46.91796875 39.27734375 C-45.93836182 38.45919189 -45.93836182 38.45919189 -44.93896484 37.62451172 C-41.95929971 35.12807609 -39.01104857 32.59553495 -36.0625 30.0625 C-35.48927002 29.57144775 -34.91604004 29.08039551 -34.32543945 28.57446289 C-30.01415458 24.87967556 -25.72412857 21.16083749 -21.4375 17.4375 C-16.51649232 13.16813261 -11.58509304 8.91143193 -6.625 4.6875 C-5.79440063 3.97581665 -5.79440063 3.97581665 -4.94702148 3.24975586 C-1.11649454 0 -1.11649454 0 0 0 Z " fill="#349245" transform="translate(339,122)"/>
<path d="M0 0 C4.98664706 3.7399853 9.3575058 7.10673624 13.8125 11.3125 C18.48034136 15.67187083 23.3079322 19.74784787 28.28515625 23.75390625 C31.10673495 26.0883059 33.80590712 28.51990598 36.5 31 C41.82306579 35.89661131 47.3715345 40.46149131 53 45 C55.00712736 46.65839866 57.00426503 48.32789773 59 50 C57.5045292 53.59721356 55.47293692 55.63097221 52.5625 58.1875 C51.6653125 58.97640625 50.768125 59.7653125 49.84375 60.578125 C46.20682295 63.67550793 42.49943265 66.67978372 38.78515625 69.68359375 C34.98749022 72.8421014 31.3794152 76.19043906 27.74609375 79.53515625 C24.22049538 82.69966916 20.54273033 85.64936092 16.8515625 88.6171875 C13.06091777 91.78471255 9.45541744 95.1358595 5.88305664 98.54663086 C2.21203559 102 2.21203559 102 0 102 C0 68.34 0 34.68 0 0 Z " fill="#3D9B4E" transform="translate(459,122)"/>
<path d="M0 0 C4.98664706 3.7399853 9.3575058 7.10673624 13.8125 11.3125 C18.47555076 15.66739681 23.29820621 19.7393024 28.26953125 23.7421875 C32.12414499 26.92955051 35.79185632 30.30633773 39.47265625 33.69140625 C42.58789598 36.53701163 45.77662843 39.27804178 49 42 C47.5045292 45.59721356 45.47293692 47.63097221 42.5625 50.1875 C41.6653125 50.97640625 40.768125 51.7653125 39.84375 52.578125 C36.20682295 55.67550793 32.49943265 58.67978372 28.78515625 61.68359375 C25.94468638 64.04600418 23.21824101 66.49829028 20.5 69 C6.75128645 81.62435678 6.75128645 81.62435678 0 85 C0 56.95 0 28.9 0 0 Z " fill="#3D9B4E" transform="translate(849,44)"/>
<path d="M0 0 C8.90510949 6.67883212 8.90510949 6.67883212 12.8125 10.3125 C16.26980431 13.47376602 19.79053355 16.49706836 23.4375 19.4375 C27.26455727 22.53148714 30.94280873 25.7283055 34.5625 29.0625 C39.52057717 33.62764598 44.67833662 37.86734167 50 42 C47.28202769 45.61345275 44.4896234 48.3991616 40.9375 51.1875 C36.99946002 54.34106986 33.20823373 57.57906128 29.5 61 C25.06476204 65.08243494 20.48111392 68.90655729 15.78515625 72.68359375 C11.78288747 76.01226891 8.00203237 79.55905988 4.21484375 83.12890625 C2 85 2 85 0 85 C0 56.95 0 28.9 0 0 Z " fill="#3D9B4E" transform="translate(849,217)"/>
<path d="M0 0 C32.34 0 64.68 0 98 0 C89.93576258 8.06423742 81.59975435 15.60436432 72.71875 22.75 C69.87342622 25.10475071 67.1535371 27.5600838 64.4375 30.0625 C59.47942283 34.62764598 54.32166338 38.86734167 49 43 C43.21814749 38.92453949 38.04196152 34.36059997 32.84765625 29.56640625 C30.17191164 27.15493271 27.43436575 24.87821765 24.625 22.625 C19.75106129 18.69508098 15.14941042 14.53443122 10.59033203 10.24853516 C7.99312666 7.81196477 5.37200673 5.45666343 2.61328125 3.203125 C1.75089844 2.47609375 0.88851562 1.7490625 0 1 C0 0.67 0 0.34 0 0 Z " fill="#3D9B4E" transform="translate(150,303)"/>
<path d="M0 0 C5.48306146 3.90140912 10.44673378 8.17528983 15.36206055 12.75683594 C19.51811433 16.61040654 23.85467783 20.18737046 28.26953125 23.7421875 C32.12488902 26.93016574 35.79376622 30.30672226 39.47265625 33.6953125 C41.67353773 35.7022987 43.90835906 37.64563699 46.1875 39.5625 C47.115625 40.366875 48.04375 41.17125 49 42 C49 42.33 49 42.66 49 43 C16.66 43 -15.68 43 -49 43 C-40.93576258 34.93576258 -32.59975435 27.39563568 -23.71875 20.25 C-20.87342622 17.89524929 -18.1535371 15.4399162 -15.4375 12.9375 C-10.47942283 8.37235402 -5.32166338 4.13265833 0 0 Z " fill="#3D9B4E" transform="translate(999,260)"/>
<path d="M0 0 C32.34 0 64.68 0 98 0 C94.92970779 3.83786526 92.67869969 6.25074089 88.9375 9.1875 C84.99946002 12.34106986 81.20823373 15.57906128 77.5 19 C73.04028873 23.10445689 68.4396496 26.96135318 63.70703125 30.74609375 C60.05102351 33.79012905 56.66333211 37.09361325 53.2890625 40.4453125 C51 42 51 42 48.53125 42.0234375 C45.28966134 40.71279517 43.38773562 38.93022789 40.875 36.5 C39.90587375 35.58097824 38.93445913 34.66436444 37.9609375 33.75 C37.46948242 33.28722656 36.97802734 32.82445312 36.47167969 32.34765625 C34.23011244 30.29499348 31.87011753 28.40152696 29.5 26.5 C24.75549657 22.67204837 20.26522669 18.62807239 15.78515625 14.49609375 C12.04842266 11.14718384 8.1503674 8.02130909 4.21484375 4.91015625 C2 3 2 3 0 0 Z " fill="#3D9B4E" transform="translate(500,87)"/>
<path d="M0 0 C32.34 0 64.68 0 98 0 C89.9153744 8.0846256 81.55510875 15.65076613 72.65234375 22.81640625 C70.00732363 24.99397068 67.46787475 27.25318763 64.9375 29.5625 C61.54119338 32.6338012 58.12820597 35.67574168 54.625 38.625 C53.83351562 39.29789062 53.04203125 39.97078125 52.2265625 40.6640625 C50 42 50 42 48.02734375 41.9921875 C45.18075098 40.59905732 43.22880469 38.68669432 40.9375 36.5 C37.22985743 33.01721446 33.46902278 29.68888487 29.5 26.5 C24.75549657 22.67204837 20.26522669 18.62807239 15.78515625 14.49609375 C12.04842266 11.14718384 8.1503674 8.02130909 4.21484375 4.91015625 C2 3 2 3 0 0 Z " fill="#3D9B4E" transform="translate(100,260)"/>
<path d="M0 0 C0 28.05 0 56.1 0 85 C-3.8104635 83.09476825 -5.99593882 81.32340956 -9.0625 78.4375 C-12.77478591 74.98537429 -16.54816138 71.68074816 -20.5 68.5 C-25.24391344 64.67252439 -29.73651809 60.63370186 -34.20703125 56.4921875 C-37.97929655 53.12616616 -41.9509865 50.06232911 -45.98046875 47.0078125 C-46.64691406 46.34523437 -47.31335938 45.68265625 -48 45 C-48 41 -48 41 -46.19921875 38.95703125 C-45.37035156 38.24933594 -44.54148437 37.54164062 -43.6875 36.8125 C-42.77226563 36.02359375 -41.85703125 35.2346875 -40.9140625 34.421875 C-37.2274256 31.35791404 -33.51243772 28.33073374 -29.78515625 25.31640625 C-25.9980988 22.16672172 -22.39957042 18.82858567 -18.77734375 15.4921875 C-15.09797246 12.19058569 -11.27296412 9.09123204 -7.41015625 6.0078125 C-4.96084118 4.02967939 -4.96084118 4.02967939 -2.74609375 1.7421875 C-1 0 -1 0 0 0 Z " fill="#3D9B4E" transform="translate(749,44)"/>
<path d="M0 0 C0.33 0 0.66 0 1 0 C1 28.05 1 56.1 1 85 C-3.25781036 82.16145976 -6.54040666 79.73889177 -10.1875 76.3125 C-13.86811864 72.91079156 -17.5968267 69.64375761 -21.5 66.5 C-25.30831531 63.42842847 -28.96404445 60.25253289 -32.5625 56.9375 C-37.52057717 52.37235402 -42.67833662 48.13265833 -48 44 C-46.5045292 40.40278644 -44.47293692 38.36902779 -41.5625 35.8125 C-40.66402344 35.02230469 -39.76554688 34.23210937 -38.83984375 33.41796875 C-36.13226301 31.11261459 -33.39034457 28.86055432 -30.625 26.625 C-26.07912312 22.94988264 -21.77795021 19.08632057 -17.50292969 15.10620117 C-13.21051709 11.13410741 -8.74414685 7.43552639 -4.1796875 3.77734375 C-1.96611041 2.03354816 -1.96611041 2.03354816 0 0 Z " fill="#3D9B4E" transform="translate(748,217)"/>
<path d="M0 0 C3.48618444 1.25605175 5.69494965 3.40489603 8.28125 5.95703125 C9.34403072 6.96989149 10.40918109 7.98027051 11.4765625 8.98828125 C12.00926758 9.49230469 12.54197266 9.99632812 13.09082031 10.515625 C15.36027494 12.60527879 17.74790487 14.53035514 20.15625 16.45703125 C24.66496457 20.08473263 28.92008528 23.90608108 33.14941406 27.84912109 C37.49412938 31.87374442 42.03226143 35.59448665 46.671875 39.27734375 C47.65414062 40.10878906 47.65414062 40.10878906 48.65625 40.95703125 C48.65625 41.28703125 48.65625 41.61703125 48.65625 41.95703125 C16.31625 41.95703125 -16.02375 41.95703125 -49.34375 41.95703125 C-40.95125999 33.56454124 -32.29543587 25.61447135 -23.0390625 18.1796875 C-20.1423927 15.79098443 -17.36474825 13.30269178 -14.59375 10.76953125 C-13.23636719 9.53203125 -13.23636719 9.53203125 -11.8515625 8.26953125 C-10.310329 6.84833151 -8.7812528 5.41363773 -7.2734375 3.95703125 C-2.98312385 -0.0546906 -2.98312385 -0.0546906 0 0 Z " fill="#3D9B4E" transform="translate(449.34375,304.04296875)"/>
<path d="M0 0 C2.8521111 1.38766175 4.80066587 3.29988874 7.09375 5.48828125 C10.78039368 8.95167989 14.51811331 12.25954634 18.46875 15.42578125 C22.99616022 19.07733401 27.27557993 22.9189024 31.52636719 26.88232422 C35.83720049 30.87597718 40.33951193 34.56405928 44.94921875 38.2109375 C47.03125 39.98828125 47.03125 39.98828125 48.03125 41.98828125 C15.69125 41.98828125 -16.64875 41.98828125 -49.96875 41.98828125 C-42.25651462 34.27604587 -34.20953505 27.11847346 -25.72265625 20.2734375 C-22.86792867 17.904621 -20.1343579 15.43901708 -17.40625 12.92578125 C-13.83010637 9.65704252 -10.23836577 6.42084643 -6.53125 3.30078125 C-5.74878906 2.63691406 -4.96632813 1.97304688 -4.16015625 1.2890625 C-1.96875 -0.01171875 -1.96875 -0.01171875 0 0 Z " fill="#3D9B4E" transform="translate(649.96875,304.01171875)"/>
<path d="M0 0 C3.01738948 1.48302697 5.24116942 3.69923335 7.62890625 6.015625 C11.54122019 9.71158978 15.49552913 13.2624366 19.69140625 16.640625 C24.10776551 20.19649019 28.31854128 23.91901757 32.50390625 27.7421875 C36.16452602 30.9898715 39.98202435 34.03112912 43.81640625 37.0703125 C46.06640625 39.015625 46.06640625 39.015625 48.06640625 42.015625 C15.72640625 42.015625 -16.61359375 42.015625 -49.93359375 42.015625 C-43.43476671 35.51679796 -36.71347557 29.41002392 -29.55859375 23.640625 C-25.52148634 20.37791337 -21.66889438 16.98582139 -17.87109375 13.453125 C-14.11915827 9.98522475 -10.34362958 6.55556704 -6.43359375 3.265625 C-5.66015625 2.61078125 -4.88671875 1.9559375 -4.08984375 1.28125 C-1.93359375 0.015625 -1.93359375 0.015625 0 0 Z " fill="#3D9B4E" transform="translate(949.93359375,303.984375)"/>
<path d="M0 0 C32.01 0 64.02 0 97 0 C88.93723843 8.06276157 80.60333106 15.60322006 71.72265625 22.74609375 C68.85359414 25.12119968 66.11298197 27.60026837 63.375 30.125 C56.36314898 36.51580135 56.36314898 36.51580135 53.125 39.25 C52.44695313 39.83265625 51.76890625 40.4153125 51.0703125 41.015625 C49 42 49 42 46.59375 41.48828125 C43.4485443 39.68357737 40.96003036 37.44398915 38.375 34.9375 C34.52522183 31.30186276 30.63565625 27.8145187 26.5 24.5 C21.93789339 20.83190852 17.63988746 16.95869338 13.36621094 12.96508789 C9.61024147 9.48296544 5.69072847 6.34487224 1.546875 3.33984375 C0.78117188 2.67662109 0.78117188 2.67662109 0 2 C0 1.34 0 0.68 0 0 Z " fill="#3D9B4E" transform="translate(551,44)"/>
<path d="M0 0 C32.01 0 64.02 0 97 0 C92.93997242 4.73669885 89.27640644 8.72051109 84.5625 12.625 C83.32635991 13.66611718 82.09069946 14.70780405 80.85546875 15.75 C80.2217334 16.28238281 79.58799805 16.81476562 78.93505859 17.36328125 C76.35877239 19.54236562 73.81381458 21.75622389 71.27050781 23.97363281 C69.39473777 25.60780445 67.51266514 27.23442305 65.62890625 28.859375 C63.24598004 30.91513325 60.8814531 32.98946617 58.52734375 35.078125 C57.45616794 36.01092077 56.38457618 36.94323918 55.3125 37.875 C54.38050781 38.69742188 53.44851562 39.51984375 52.48828125 40.3671875 C50 42 50 42 48.015625 42.0703125 C45.06618024 40.50413447 42.8135904 38.30510475 40.4375 36 C36.54615279 32.32354541 32.6151103 28.79279333 28.4375 25.4375 C23.71233883 21.6343215 19.24688532 17.61096053 14.7890625 13.5 C11.01559165 10.11761717 7.0876907 6.96190764 3.1171875 3.8125 C1 2 1 2 0 0 Z " fill="#2F8D40" transform="translate(50,44)"/>
<path d="M0 0 C7.7677476 3.41200128 14.41197839 11.06671111 20.60742188 16.82958984 C23.84011754 19.82139754 27.15608264 22.65517245 30.58984375 25.41796875 C34.77697897 28.79212735 38.80857891 32.29247386 42.77734375 35.91796875 C43.30714844 36.39943359 43.83695312 36.88089844 44.3828125 37.37695312 C45.63942656 38.53497645 46.86773527 39.72358699 48.08984375 40.91796875 C48.08984375 41.24796875 48.08984375 41.57796875 48.08984375 41.91796875 C16.07984375 41.91796875 -15.93015625 41.91796875 -48.91015625 41.91796875 C-40.84755883 33.85537133 -32.51189949 26.32061568 -23.63671875 19.171875 C-20.75452006 16.78931247 -17.98383826 14.31454406 -15.22265625 11.79296875 C-14.3203125 10.96925781 -13.41796875 10.14554688 -12.48828125 9.296875 C-10.8404448 7.77637136 -9.20378895 6.24360131 -7.58203125 4.6953125 C-6.8859375 4.04691406 -6.18984375 3.39851562 -5.47265625 2.73046875 C-4.87582031 2.15941406 -4.27898437 1.58835938 -3.6640625 1 C-1.91015625 -0.08203125 -1.91015625 -0.08203125 0 0 Z " fill="#2F8D40" transform="translate(198.91015625,174.08203125)"/>
<path d="M0 0 C32.01 0 64.02 0 97 0 C88.95926064 8.04073936 80.64995216 15.54982174 71.796875 22.67578125 C68.6911779 25.25663289 65.71435271 27.94704659 62.75 30.6875 C61.99106445 31.38601074 61.99106445 31.38601074 61.21679688 32.09863281 C59.07351667 34.07389566 56.93976234 36.05731245 54.828125 38.06640625 C50.54650176 42.00952509 50.54650176 42.00952509 48.20703125 41.96875 C44.8764557 40.50683365 42.37453846 38.14553254 39.6875 35.75 C39.07575928 35.2149585 38.46401855 34.67991699 37.83374023 34.12866211 C36.53815928 32.99521414 35.24499801 31.85899519 33.95410156 30.72021484 C31.45515661 28.520369 28.93723312 26.34301573 26.41796875 24.16650391 C24.55450748 22.55559068 22.69498997 20.9402166 20.8359375 19.32421875 C18.1630201 17.00321934 15.47931026 14.69541734 12.7890625 12.39453125 C12.10255615 11.80534912 11.4160498 11.21616699 10.70874023 10.60913086 C9.39045343 9.47810161 8.06975956 8.34987012 6.74633789 7.22485352 C4.0853509 4.93693249 1.95820458 2.93730687 0 0 Z " fill="#3D9B4E" transform="translate(951,44)"/>
<path d="M0 0 C4.05996279 1.68339921 7.11274368 4.5114639 10.375 7.375 C11.63271772 8.46625508 12.89053292 9.55739782 14.1484375 10.6484375 C15.1089502 11.4852002 15.1089502 11.4852002 16.08886719 12.33886719 C19.04546145 14.90870206 22.02320087 17.45363221 25 20 C26.15371393 20.98950394 27.30735938 21.97908773 28.4609375 22.96875 C30.92063586 25.07745615 33.38484801 27.18075633 35.8515625 29.28125 C36.48320312 29.82007812 37.11484375 30.35890625 37.765625 30.9140625 C38.97018262 31.94147929 40.17584333 32.96760478 41.3828125 33.9921875 C44.39520178 36.56408589 47.19191897 39.19191897 50 42 C17.66 42 -14.68 42 -48 42 C-39.93723843 33.93723843 -31.60333106 26.39677994 -22.72265625 19.25390625 C-19.85359414 16.87880032 -17.11298197 14.39973163 -14.375 11.875 C-9.77552848 7.63951543 -5.01099193 3.73659152 0 0 Z " fill="#3D9B4E" transform="translate(198,1)"/>
<path d="M0 0 C2.82966195 1.42571429 4.80226371 3.33656988 7.09375 5.5234375 C10.80139257 9.00622304 14.56222722 12.33455263 18.53125 15.5234375 C23.27575343 19.35138913 27.76602331 23.39536511 32.24609375 27.52734375 C35.98282734 30.87625366 39.8808826 34.00212841 43.81640625 37.11328125 C46.03125 39.0234375 46.03125 39.0234375 48.03125 42.0234375 C16.02125 42.0234375 -15.98875 42.0234375 -48.96875 42.0234375 C-45.89845779 38.18557224 -43.64744969 35.77269661 -39.90625 32.8359375 C-35.96821002 29.68236764 -32.17698373 26.44437622 -28.46875 23.0234375 C-24.00985009 18.91972734 -19.40874397 15.06465402 -14.6796875 11.27734375 C-11.0034381 8.2208655 -7.5762343 4.92104158 -4.16015625 1.578125 C-1.96875 0.0234375 -1.96875 0.0234375 0 0 Z " fill="#3D9B4E" transform="translate(1048.96875,217.9765625)"/>
<path d="M0 0 C4.03183668 1.67747949 7.06915848 4.46822734 10.3125 7.3125 C10.92351562 7.84230469 11.53453125 8.37210938 12.1640625 8.91796875 C13.45809531 10.04069376 14.75054168 11.16524954 16.04150391 12.29150391 C18.56673324 14.49439033 21.09962859 16.68835074 23.6328125 18.88208008 C24.87718309 19.9603285 26.1206741 21.03959285 27.36328125 22.11987305 C30.55559765 24.89353184 33.76008396 27.65095745 36.98828125 30.3828125 C37.95121094 31.19975586 37.95121094 31.19975586 38.93359375 32.03320312 C40.15615538 33.06894921 41.38128883 34.10166977 42.609375 35.13085938 C45.17470814 37.30686549 47.12010825 39.18016237 49 42 C16.99 42 -15.02 42 -48 42 C-40.30996367 34.30996367 -32.2886365 27.177717 -23.82421875 20.35546875 C-20.74608255 17.78822653 -17.80682302 15.10621725 -14.875 12.375 C-10.12870628 7.95362654 -5.2151004 3.85864752 0 0 Z " fill="#3D9B4E" transform="translate(98,1)"/>
<path d="M0 0 C31.68 0 63.36 0 96 0 C96 0.66 96 1.32 96 2 C94.44759659 3.39325954 92.82970015 4.71380128 91.1875 6 C87.16052706 9.21745342 83.28942988 12.50038222 79.5 16 C75.06127058 20.08564867 70.4744789 23.91306208 65.7734375 27.69140625 C61.86404541 30.9455622 58.1889457 34.42278164 54.5078125 37.93359375 C52.04761455 39.9607662 50.00924818 41.01309603 47 42 C46.40574219 41.45472656 45.81148437 40.90945312 45.19921875 40.34765625 C40.74533727 36.29552458 36.24908814 32.34418496 31.5625 28.5625 C26.79715735 24.70867156 22.28078772 20.64282138 17.77734375 16.48828125 C14.11045428 13.2030371 10.2819764 10.14476203 6.41015625 7.10546875 C4 5 4 5 0 0 Z " fill="#3D9B4E" transform="translate(601,1)"/>
<path d="M0 0 C31.68 0 63.36 0 96 0 C89.30123617 7.81522446 89.30123617 7.81522446 84.8125 11.3125 C80.9118136 14.42143679 77.16600405 17.61720656 73.5 21 C68.99858542 25.14181513 64.35195362 29.0406998 59.59375 32.8828125 C55.98165769 35.83123725 52.48066574 38.89831792 49 42 C40.10181396 38.03607489 32.82536499 29.9817899 25.74609375 23.46484375 C23.08124834 21.07292703 20.35168175 18.80745116 17.5625 16.5625 C13.35706756 13.16533709 9.3027146 9.64462876 5.3125 6 C4.78277588 5.51861572 4.25305176 5.03723145 3.70727539 4.54125977 C2.45058489 3.3831496 1.22219077 2.19446218 0 1 C0 0.67 0 0.34 0 0 Z " fill="#3D9B4E" transform="translate(401,1)"/>
<path d="M0 0 C31.68 0 63.36 0 96 0 C96 0.66 96 1.32 96 2 C94.44759659 3.39325954 92.82970015 4.71380128 91.1875 6 C87.16052706 9.21745342 83.28942988 12.50038222 79.5 16 C75.06127058 20.08564867 70.4744789 23.91306208 65.7734375 27.69140625 C61.86404541 30.9455622 58.1889457 34.42278164 54.5078125 37.93359375 C52.04761455 39.9607662 50.00924818 41.01309603 47 42 C46.33355469 41.38253906 45.66710937 40.76507813 44.98046875 40.12890625 C40.25092083 35.78301396 35.50175849 31.5346075 30.5 27.5 C25.75405391 23.6708844 21.26243774 19.62569688 16.78125 15.4921875 C13.07944601 12.17512156 9.21614094 9.08306452 5.3125 6.0078125 C3 4 3 4 0 0 Z " fill="#3D9B4E" transform="translate(901,1)"/>
<path d="M0 0 C32.01 0 64.02 0 97 0 C89.30996367 7.69003633 81.2886365 14.822283 72.82421875 21.64453125 C69.74608255 24.21177347 66.80682302 26.89378275 63.875 29.625 C59.12870628 34.04637346 54.2151004 38.14135248 49 42 C44.04388673 39.00024723 39.96822634 35.32942293 35.703125 31.421875 C33.05175507 29.04637015 30.33424714 26.79573627 27.5625 24.5625 C22.80292199 20.71333354 18.29195031 16.65231782 13.79296875 12.50390625 C9.98464554 9.08973118 6.02187876 5.89992869 2.01953125 2.71484375 C1.35308594 2.14894531 0.68664062 1.58304687 0 1 C0 0.67 0 0.34 0 0 Z " fill="#3D9B4E" transform="translate(1000,87)"/>
<path d="M0 0 C5.45464641 3.88529284 10.42731486 8.1315509 15.3671875 12.6484375 C17.99666032 14.99701708 20.69311033 17.22478696 23.4375 19.4375 C28.25514158 23.33652348 32.84811832 27.43097176 37.40625 31.62890625 C40.42884758 34.39203386 43.51924547 37.06749364 46.63671875 39.72265625 C47.08660156 40.14417969 47.53648438 40.56570313 48 41 C48 41.33 48 41.66 48 42 C16.32 42 -15.36 42 -48 42 C-42.37641723 36.37641723 -42.37641723 36.37641723 -39.7578125 34.125 C-39.17435059 33.62145996 -38.59088867 33.11791992 -37.98974609 32.59912109 C-37.37437988 32.07141113 -36.75901367 31.54370117 -36.125 31 C-34.78638871 29.84643495 -33.44784908 28.69278674 -32.109375 27.5390625 C-31.42810547 26.95286133 -30.74683594 26.36666016 -30.04492188 25.76269531 C-28.07268104 24.06265009 -26.10554666 22.35693387 -24.140625 20.6484375 C-16.14863433 13.69964231 -8.10323451 6.81874203 0 0 Z " fill="#3D9B4E" transform="translate(1148,304)"/>
<path d="M0 0 C31.35 0 62.7 0 95 0 C91.49170402 4.20995518 89.00970176 7.01629296 84.875 10.25 C80.95566191 13.38126742 77.18710446 16.59814431 73.5 20 C69.02121394 24.12150398 64.39521217 27.99429637 59.66015625 31.81640625 C55.6679675 35.09340113 51.82669157 38.53235604 48 42 C42.51693854 38.09859088 37.55326622 33.82471017 32.63793945 29.24316406 C28.48321998 25.39083065 24.14843373 21.8146533 19.734375 18.26171875 C15.85407922 15.05215981 12.16384652 11.64941377 8.4609375 8.23828125 C6.45091927 6.41012182 4.41822435 4.65272617 2.3125 2.9375 C1.549375 2.298125 0.78625 1.65875 0 1 C0 0.67 0 0.34 0 0 Z " fill="#3D9B4E" transform="translate(1101,1)"/>
<path d="M0 0 C4.47870741 1.11967685 5.77851415 2.36594576 9.0625 5.5 C13.78161608 9.91506565 18.6407019 14.04800399 23.6875 18.08984375 C24.450625 18.72019531 25.21375 19.35054687 26 20 C26.61875 20.49628906 27.2375 20.99257812 27.875 21.50390625 C29 23 29 23 28.74145508 24.92700195 C27.4953408 28.41095201 24.47738926 30.34930834 21.6875 32.625 C21.06391602 33.14481445 20.44033203 33.66462891 19.79785156 34.20019531 C18.50741484 35.27479619 17.21392003 36.3457348 15.91748047 37.41308594 C14.08733646 38.92772002 12.2770508 40.46264947 10.47265625 42.0078125 C2.25835598 49 2.25835598 49 0 49 C0 32.83 0 16.66 0 0 Z " fill="#2F8D40" transform="translate(1169,149)"/>
<path d="M0 0 C3.8104635 1.90523175 5.99593882 3.67659044 9.0625 6.5625 C13.77524465 10.93364974 18.63557526 15.01232819 23.6875 18.9921875 C25.83360513 20.85552878 27.40521239 22.6602787 29 25 C22.30207414 31.25373532 15.54729046 37.31726132 8.375 43.02734375 C5.95567922 44.96522219 5.95567922 44.96522219 3.8125 47.25390625 C2 49 2 49 0 49 C0 32.83 0 16.66 0 0 Z " fill="#2F8D40" transform="translate(1140,123)"/>
<path d="M0 0 C3.62140464 1.81070232 5.65787249 3.34928122 8.5625 6.0625 C13.11952302 10.24765913 17.82850068 14.18173148 22.65234375 18.0546875 C24.55178936 19.62860416 26.30080455 21.21668596 28 23 C23.55303709 33.69674863 8.80833854 41.95332917 0 49 C0 32.83 0 16.66 0 0 Z " fill="#349245" transform="translate(0,227)"/>
<path d="M0 0 C0 16.17 0 32.34 0 49 C-4.81299508 45.39025369 -9.06932763 42.16570791 -13.375 38.125 C-18.3941754 33.49191501 -23.60660699 29.1883616 -29 25 C-4.26978417 0 -4.26978417 0 0 0 Z " fill="#3D9B4E" transform="translate(1169,200)"/>
<path d="M0 0 C0 16.17 0 32.34 0 49 C-4.83708245 45.37218816 -9.11050711 42.12605344 -13.4375 38.0625 C-17.57782622 34.22286787 -21.82111586 30.74922214 -26.41796875 27.47265625 C-26.94003906 26.98667969 -27.46210937 26.50070313 -28 26 C-28 25.01 -28 24.02 -28 23 C-25.98046875 21.08984375 -25.98046875 21.08984375 -23.1875 18.9375 C-18.08015981 14.90434878 -13.28312732 10.68779413 -8.5078125 6.26171875 C-1.56476684 0 -1.56476684 0 0 0 Z " fill="#3D9B4E" transform="translate(1139,174)"/>
<path d="M0 0 C0 15.84 0 31.68 0 48 C-3.62140464 46.18929768 -5.65787249 44.65071878 -8.5625 41.9375 C-13.11952302 37.75234087 -17.82850068 33.81826852 -22.65234375 29.9453125 C-24.55178936 28.37139584 -26.30080455 26.78331404 -28 25 C-26.48601922 21.18511059 -24.27002932 19.36923371 -21.0625 16.875 C-15.93103766 12.79822557 -11.11332706 8.52531394 -6.3125 4.06640625 C-1.76181474 0 -1.76181474 0 0 0 Z " fill="#3D9B4E" transform="translate(1198,175)"/>
<path d="M0 0 C0.33 0 0.66 0 1 0 C1 16.17 1 32.34 1 49 C-3.82370351 45.38222237 -8.15326446 42.10155998 -12.5 38.0625 C-16.45048842 34.40402816 -20.46442948 30.87570582 -24.63671875 27.47265625 C-26 26 -26 26 -26 23 C-23.94940628 20.83864429 -21.90058861 18.85755259 -19.6875 16.875 C-18.7425769 16.01310059 -18.7425769 16.01310059 -17.77856445 15.13378906 C-12.34613772 10.21752856 -6.72076797 5.57661438 -1 1 C-0.67 0.67 -0.34 0.34 0 0 Z " fill="#3D9B4E" transform="translate(1197,123)"/>
<path d="M0 0 C0 15.51 0 31.02 0 47 C-9.01078582 40.24191063 -9.01078582 40.24191063 -11.88671875 37.74609375 C-12.51513672 37.20146484 -13.14355469 36.65683594 -13.79101562 36.09570312 C-14.41685547 35.54849609 -15.04269531 35.00128906 -15.6875 34.4375 C-16.32494141 33.88642578 -16.96238281 33.33535156 -17.61914062 32.76757812 C-21.22075607 29.63428419 -24.66921073 26.41994998 -28 23 C-21.98089973 17.47705116 -15.84400393 12.15676521 -9.4921875 7.01953125 C-7.43093968 5.34920974 -5.39700262 3.65475103 -3.375 1.9375 C-1 0 -1 0 0 0 Z " fill="#3D9B4E" transform="translate(1198,73)"/>
<path d="M0 0 C0 15.51 0 31.02 0 47 C-8.89952153 40.32535885 -8.89952153 40.32535885 -12.875 36.625 C-17.73701601 32.17821827 -22.80830249 28.05394252 -28 24 C-4.25945946 0 -4.25945946 0 0 0 Z " fill="#3D9B4E" transform="translate(1198,227)"/>
<path d="M0 0 C0 15.51 0 31.02 0 47 C-4.82370351 43.38222237 -9.15326446 40.10155998 -13.5 36.0625 C-17.94019679 31.96909682 -22.43340836 27.95160652 -27 24 C-25.75558691 20.26676074 -24.27312032 19.40139836 -21.1875 17 C-16.21608812 13.04369316 -11.51680613 8.89087604 -6.88549805 4.54296875 C-2.01931736 0 -2.01931736 0 0 0 Z " fill="#3D9B4E" transform="translate(1109,150)"/>
</svg>
